<svg width="14" height="14" viewBox="0 0 14 14" fill="none" xmlns="http://www.w3.org/2000/svg">
<path d="M13.3002 0.710001C12.9102 0.320001 12.2802 0.320001 11.8902 0.710001L7.00022 5.59L2.11022 0.700001C1.72022 0.310001 1.09021 0.310001 0.700215 0.700001C0.310215 1.09 0.310215 1.72 0.700215 2.11L5.59022 7L0.700215 11.89C0.310215 12.28 0.310215 12.91 0.700215 13.3C1.09021 13.69 1.72022 13.69 2.11022 13.3L7.00022 8.41L11.8902 13.3C12.2802 13.69 12.9102 13.69 13.3002 13.3C13.6902 12.91 13.6902 12.28 13.3002 11.89L8.41021 7L13.3002 2.11C13.6802 1.73 13.6802 1.09 13.3002 0.710001Z" fill="black"/>
</svg>
