<svg width="25" height="25" fill="none" xmlns="http://www.w3.org/2000/svg"><g clip-path="url(#a)"><path d="M23.62 0H1.379A1.38 1.38 0 0 0 0 1.38v22.241A1.38 1.38 0 0 0 1.38 25h22.24A1.38 1.38 0 0 0 25 23.62V1.379A1.38 1.38 0 0 0 23.62 0Z" fill="#4267B2"/><path d="M17.26 25v-9.668h3.26l.488-3.784h-3.747v-2.41c0-1.093.303-1.838 1.87-1.838h1.987V3.924c-.345-.046-1.531-.148-2.911-.148-2.88 0-4.853 1.757-4.853 4.987v2.785h-3.247v3.784h3.248V25h3.906Z" fill="#fff"/></g><defs><clipPath id="a"><path fill="#fff" d="M0 0h25v25H0z"/></clipPath></defs></svg>