<svg width="25" height="25" fill="none" xmlns="http://www.w3.org/2000/svg"><g clip-path="url(#a)"><path d="M1.562 1.701C-.402 3.741 0 5.91 0 12.495c0 5.469-.954 10.951 4.04 12.242 1.559.4 15.376.4 16.933-.002 2.079-.537 3.77-2.223 4.002-5.164.032-.41.032-13.734-.001-14.153C24.728 2.286 22.8.48 20.259.115 19.677.03 19.56.005 16.573 0 5.976.005 3.653-.466 1.563 1.701Z" fill="url(#b)"/><path d="M12.498 3.27c-3.782 0-7.374-.337-8.746 3.184-.567 1.454-.484 3.343-.484 6.047 0 2.373-.076 4.603.484 6.046 1.369 3.523 4.99 3.185 8.744 3.185 3.622 0 7.356.377 8.745-3.185.567-1.469.484-3.33.484-6.046 0-3.606.199-5.934-1.55-7.682-1.77-1.771-4.166-1.55-7.681-1.55h.004Zm-.827 1.663c7.89-.012 8.894-.89 8.34 11.295-.197 4.31-3.479 3.836-7.512 3.836-7.354 0-7.566-.21-7.566-7.567 0-7.443.584-7.56 6.738-7.566v.002Zm5.754 1.532a1.107 1.107 0 1 0 0 2.215 1.107 1.107 0 0 0 0-2.215ZM12.498 7.76a4.74 4.74 0 1 0 .001 9.48 4.74 4.74 0 0 0-.001-9.48Zm0 1.664c4.068 0 4.073 6.154 0 6.154-4.067 0-4.073-6.154 0-6.154Z" fill="#fff"/></g><defs><linearGradient id="b" x1="1.61" y1="23.403" x2="24.845" y2="3.294" gradientUnits="userSpaceOnUse"><stop stop-color="#FD5"/><stop offset=".5" stop-color="#FF543E"/><stop offset="1" stop-color="#C837AB"/></linearGradient><clipPath id="a"><path fill="#fff" d="M0 0h25v25H0z"/></clipPath></defs></svg>