<svg width="25" height="25" fill="none" xmlns="http://www.w3.org/2000/svg"><path d="M24.485 6.499a3.132 3.132 0 0 0-2.203-2.204C20.325 3.76 12.5 3.76 12.5 3.76s-7.825 0-9.782.515A3.196 3.196 0 0 0 .515 6.499C0 8.455 0 12.512 0 12.512s0 4.077.515 6.013a3.133 3.133 0 0 0 2.203 2.203c1.977.536 9.782.536 9.782.536s7.825 0 9.782-.515a3.132 3.132 0 0 0 2.203-2.203C25 16.588 25 12.532 25 12.532s.02-4.077-.515-6.033Z" fill="red"/><path d="m10.004 16.26 6.507-3.747-6.507-3.748v7.495Z" fill="#fff"/></svg>